<svg width="17" height="17" viewBox="0 0 17 17" fill="none" xmlns="http://www.w3.org/2000/svg">
<path d="M7.68819 8.443L0.163563 15.9676C-0.0454844 16.1767 -0.0454844 16.5153 0.163563 16.7244C0.267953 16.829 0.405016 16.8811 0.541813 16.8811C0.678875 16.8811 0.815672 16.829 0.920063 16.7244L8.50127 9.14319L16.0825 16.7244C16.1871 16.829 16.3239 16.8811 16.4607 16.8811C16.5975 16.8811 16.7346 16.829 16.839 16.7244C17.048 16.5153 17.048 16.1767 16.839 15.9676L9.31461 8.443L16.844 0.913062C17.0531 0.704015 17.0531 0.365343 16.844 0.156296C16.635 -0.0524852 16.2963 -0.0524852 16.0875 0.156296L8.50153 7.74281L0.91475 0.156562C0.705703 -0.0522196 0.367297 -0.0522196 0.15825 0.156562C-0.0507969 0.365609 -0.0507969 0.70428 0.15825 0.913327L7.68819 8.443Z" fill="white"/>
</svg>
